<?xml version="1.0" encoding="UTF-8"?> <svg xmlns="http://www.w3.org/2000/svg" width="69" height="88" viewBox="0 0 69 88" fill="none"><path d="M6.56 70V12.8H24.96C31.5733 12.8 36.7467 14.2933 40.48 17.28C44.2667 20.2133 46.16 24.6133 46.16 30.48V30.8C46.16 36.6133 44.2667 40.9867 40.48 43.92C36.6933 46.8 31.6 48.24 25.2 48.24H17.2V70H6.56ZM17.2 40.56H24.96C28.48 40.56 31.1467 39.7333 32.96 38.08C34.8267 36.3733 35.76 33.9467 35.76 30.8V30.48C35.76 24.1867 32.16 21.04 24.96 21.04H17.2V40.56Z" fill="black"></path><path d="M56.52 70.56C54.76 70.56 53.2667 69.9733 52.04 68.8C50.8133 67.5733 50.2 66.08 50.2 64.32C50.2 62.56 50.8133 61.0667 52.04 59.84C53.2667 58.6133 54.76 58 56.52 58C58.3333 58 59.8533 58.6133 61.08 59.84C62.3067 61.0667 62.92 62.56 62.92 64.32C62.92 66.08 62.3067 67.5733 61.08 68.8C59.8533 69.9733 58.3333 70.56 56.52 70.56Z" fill="black"></path><path d="M48 59.5584C48 62.71 47.2667 65.2035 45.8 67.039C44.3 68.8398 42.2833 69.8268 39.75 70V67.3506C43.75 66.8312 45.75 64.2338 45.75 59.5584C45.75 57.3074 45.3 55.5931 44.4 54.4156C43.4667 53.2381 42.2 52.6494 40.6 52.6494C39 52.6494 37.8333 53.1688 37.1 54.2078C36.3667 55.2468 35.7667 57.0996 35.3 59.7662C34.7 63.1948 33.8833 65.619 32.85 67.039C31.8167 68.4242 30.2 69.1169 28 69.1169C25.8667 69.1169 24.1667 68.2338 22.9 66.4675C21.6333 64.7013 21 62.6061 21 60.1818C21 54.5368 23.3667 51.3853 28.1 50.7273V53.3766C24.8667 54.0346 23.25 56.3203 23.25 60.2338C23.25 62.1385 23.6833 63.6797 24.55 64.8571C25.3833 66 26.5 66.5714 27.9 66.5714C29.3667 66.5714 30.4667 66.0519 31.2 65.013C31.9 63.9394 32.4833 61.9827 32.95 59.1429C33.5167 55.9221 34.3 53.6017 35.3 52.1818C36.3 50.7273 38 50 40.4 50C42.6667 50 44.5 50.8485 45.9 52.5455C47.3 54.2078 48 56.5455 48 59.5584Z" fill="black"></path></svg> 